<mxfile host="65bd71144e" scale="1" border="10">
    <diagram id="jVDC_NcEdhLlJ4vW8XBc" name="Page-1">
        <mxGraphModel dx="2712" dy="1251" grid="1" gridSize="20" guides="1" tooltips="1" connect="1" arrows="1" fold="1" page="1" pageScale="1" pageWidth="1169" pageHeight="827" background="#ffffff" math="0" shadow="0">
            <root>
                <mxCell id="0"/>
                <mxCell id="1" parent="0"/>
                <mxCell id="12" value="" style="endArrow=classic;html=1;exitX=0;exitY=0.5;exitDx=0;exitDy=0;entryX=1;entryY=0.472;entryDx=0;entryDy=0;entryPerimeter=0;" parent="1" source="3" target="7" edge="1">
                    <mxGeometry width="50" height="50" relative="1" as="geometry">
                        <mxPoint x="595" y="301" as="sourcePoint"/>
                        <mxPoint x="120" y="331" as="targetPoint"/>
                    </mxGeometry>
                </mxCell>
                <mxCell id="19" value="register the piped&lt;br&gt;&amp;amp; report statuses" style="text;html=1;align=center;verticalAlign=middle;resizable=0;points=[];autosize=1;strokeColor=none;fillColor=none;" parent="1" vertex="1">
                    <mxGeometry x="230" y="394" width="120" height="40" as="geometry"/>
                </mxCell>
                <mxCell id="33" value="AWS Cloud" style="points=[[0,0],[0.25,0],[0.5,0],[0.75,0],[1,0],[1,0.25],[1,0.5],[1,0.75],[1,1],[0.75,1],[0.5,1],[0.25,1],[0,1],[0,0.75],[0,0.5],[0,0.25]];outlineConnect=0;gradientColor=none;html=1;whiteSpace=wrap;fontSize=12;fontStyle=0;container=1;pointerEvents=0;collapsible=0;recursiveResize=0;shape=mxgraph.aws4.group;grIcon=mxgraph.aws4.group_aws_cloud;strokeColor=#232F3E;fillColor=none;verticalAlign=top;align=left;spacingLeft=30;fontColor=#232F3E;dashed=0;" parent="1" vertex="1">
                    <mxGeometry x="360" y="380" width="735" height="560" as="geometry"/>
                </mxCell>
                <mxCell id="87" value="" style="rounded=0;whiteSpace=wrap;html=1;fillColor=#bac8d3;strokeColor=#23445d;" vertex="1" parent="33">
                    <mxGeometry x="520" y="140" width="120" height="120" as="geometry"/>
                </mxCell>
                <mxCell id="48" value="" style="group" parent="33" vertex="1" connectable="0">
                    <mxGeometry x="70" y="320" width="250" height="220" as="geometry"/>
                </mxCell>
                <mxCell id="49" value="" style="rounded=0;whiteSpace=wrap;html=1;fillColor=none;" parent="48" vertex="1">
                    <mxGeometry width="250" height="220" as="geometry"/>
                </mxCell>
                <mxCell id="52" value="ECR" style="text;html=1;align=center;verticalAlign=middle;resizable=0;points=[];autosize=1;strokeColor=none;fillColor=none;" parent="48" vertex="1">
                    <mxGeometry x="78" width="50" height="30" as="geometry"/>
                </mxCell>
                <mxCell id="21" value="" style="sketch=0;points=[[0,0,0],[0.25,0,0],[0.5,0,0],[0.75,0,0],[1,0,0],[0,1,0],[0.25,1,0],[0.5,1,0],[0.75,1,0],[1,1,0],[0,0.25,0],[0,0.5,0],[0,0.75,0],[1,0.25,0],[1,0.5,0],[1,0.75,0]];outlineConnect=0;fontColor=#232F3E;gradientColor=#F78E04;gradientDirection=north;fillColor=#D05C17;strokeColor=#ffffff;dashed=0;verticalLabelPosition=bottom;verticalAlign=top;align=center;html=1;fontSize=12;fontStyle=0;aspect=fixed;shape=mxgraph.aws4.resourceIcon;resIcon=mxgraph.aws4.ecr;" parent="48" vertex="1">
                    <mxGeometry width="78" height="78" as="geometry"/>
                </mxCell>
                <mxCell id="23" value="[private repo]&lt;br&gt;image of&lt;br style=&quot;border-color: var(--border-color);&quot;&gt;piped" style="rounded=0;whiteSpace=wrap;html=1;" parent="48" vertex="1">
                    <mxGeometry x="63" y="100" width="120" height="60" as="geometry"/>
                </mxCell>
                <mxCell id="13" value="" style="endArrow=classic;html=1;exitX=1;exitY=0.5;exitDx=0;exitDy=0;entryX=0;entryY=0.5;entryDx=0;entryDy=0;entryPerimeter=0;" parent="33" source="3" target="17" edge="1">
                    <mxGeometry width="50" height="50" relative="1" as="geometry">
                        <mxPoint x="250" y="301" as="sourcePoint"/>
                        <mxPoint x="550.0050000000001" y="121.44000000000005" as="targetPoint"/>
                    </mxGeometry>
                </mxCell>
                <mxCell id="74" value="" style="group" parent="33" vertex="1" connectable="0">
                    <mxGeometry x="190" y="400" width="70" height="30" as="geometry"/>
                </mxCell>
                <mxCell id="24" value="" style="endArrow=classic;html=1;exitX=0.5;exitY=0;exitDx=0;exitDy=0;entryX=0.5;entryY=1;entryDx=0;entryDy=0;" parent="74" source="23" target="3" edge="1">
                    <mxGeometry width="50" height="50" relative="1" as="geometry">
                        <mxPoint x="85" y="-279" as="sourcePoint"/>
                        <mxPoint x="141" y="-109" as="targetPoint"/>
                    </mxGeometry>
                </mxCell>
                <mxCell id="63" value="" style="group" parent="33" vertex="1" connectable="0">
                    <mxGeometry x="70" y="68" width="250" height="220" as="geometry"/>
                </mxCell>
                <mxCell id="59" value="" style="rounded=0;whiteSpace=wrap;html=1;fillColor=none;" parent="63" vertex="1">
                    <mxGeometry width="250" height="220" as="geometry"/>
                </mxCell>
                <mxCell id="15" value="App Runner" style="text;html=1;align=center;verticalAlign=middle;resizable=0;points=[];autosize=1;strokeColor=none;fillColor=none;" parent="63" vertex="1">
                    <mxGeometry x="78" width="90" height="30" as="geometry"/>
                </mxCell>
                <mxCell id="2" value="" style="sketch=0;points=[[0,0,0],[0.25,0,0],[0.5,0,0],[0.75,0,0],[1,0,0],[0,1,0],[0.25,1,0],[0.5,1,0],[0.75,1,0],[1,1,0],[0,0.25,0],[0,0.5,0],[0,0.75,0],[1,0.25,0],[1,0.5,0],[1,0.75,0]];outlineConnect=0;fontColor=#232F3E;gradientColor=#F78E04;gradientDirection=north;fillColor=#D05C17;strokeColor=#ffffff;dashed=0;verticalLabelPosition=bottom;verticalAlign=top;align=center;html=1;fontSize=12;fontStyle=0;aspect=fixed;shape=mxgraph.aws4.resourceIcon;resIcon=mxgraph.aws4.app_runner;" parent="63" vertex="1">
                    <mxGeometry width="78" height="78" as="geometry"/>
                </mxCell>
                <mxCell id="3" value="piped" style="rounded=0;whiteSpace=wrap;html=1;" parent="63" vertex="1">
                    <mxGeometry x="63" y="100" width="120" height="60" as="geometry"/>
                </mxCell>
                <mxCell id="84" value="" style="group" vertex="1" connectable="0" parent="33">
                    <mxGeometry x="428" y="159" width="190" height="78" as="geometry"/>
                </mxCell>
                <mxCell id="17" value="" style="sketch=0;points=[[0,0,0],[0.25,0,0],[0.5,0,0],[0.75,0,0],[1,0,0],[0,1,0],[0.25,1,0],[0.5,1,0],[0.75,1,0],[1,1,0],[0,0.25,0],[0,0.5,0],[0,0.75,0],[1,0.25,0],[1,0.5,0],[1,0.75,0]];outlineConnect=0;fontColor=#232F3E;gradientColor=#F78E04;gradientDirection=north;fillColor=#D05C17;strokeColor=#ffffff;dashed=0;verticalLabelPosition=bottom;verticalAlign=top;align=center;html=1;fontSize=12;fontStyle=0;aspect=fixed;shape=mxgraph.aws4.resourceIcon;resIcon=mxgraph.aws4.lambda;" parent="84" vertex="1">
                    <mxGeometry x="112" width="78" height="78" as="geometry"/>
                </mxCell>
                <mxCell id="42" value="" style="group" parent="33" vertex="1" connectable="0">
                    <mxGeometry x="398" y="320" width="250" height="220" as="geometry"/>
                </mxCell>
                <mxCell id="41" value="" style="rounded=0;whiteSpace=wrap;html=1;fillColor=none;" parent="42" vertex="1">
                    <mxGeometry width="250" height="220" as="geometry"/>
                </mxCell>
                <mxCell id="31" value="[secret]&lt;br&gt;piped-config&lt;br&gt;(base64 encoded)" style="whiteSpace=wrap;html=1;shape=mxgraph.basic.document" parent="42" vertex="1">
                    <mxGeometry x="83" y="78" width="100" height="100" as="geometry"/>
                </mxCell>
                <mxCell id="14" value="" style="sketch=0;points=[[0,0,0],[0.25,0,0],[0.5,0,0],[0.75,0,0],[1,0,0],[0,1,0],[0.25,1,0],[0.5,1,0],[0.75,1,0],[1,1,0],[0,0.25,0],[0,0.5,0],[0,0.75,0],[1,0.25,0],[1,0.5,0],[1,0.75,0]];outlineConnect=0;fontColor=#232F3E;gradientColor=#F54749;gradientDirection=north;fillColor=#C7131F;strokeColor=#ffffff;dashed=0;verticalLabelPosition=bottom;verticalAlign=top;align=center;html=1;fontSize=12;fontStyle=0;aspect=fixed;shape=mxgraph.aws4.resourceIcon;resIcon=mxgraph.aws4.secrets_manager;" parent="42" vertex="1">
                    <mxGeometry width="78" height="78" as="geometry"/>
                </mxCell>
                <mxCell id="16" value="Secrets Manger" style="text;html=1;align=center;verticalAlign=middle;resizable=0;points=[];autosize=1;strokeColor=none;fillColor=none;" parent="42" vertex="1">
                    <mxGeometry x="78" width="110" height="30" as="geometry"/>
                </mxCell>
                <mxCell id="67" value="" style="group" parent="33" vertex="1" connectable="0">
                    <mxGeometry x="371" y="280" width="105" height="30" as="geometry"/>
                </mxCell>
                <mxCell id="68" value="fetch piped config" style="text;html=1;align=center;verticalAlign=middle;resizable=0;points=[];autosize=1;strokeColor=none;fillColor=none;" parent="67" vertex="1">
                    <mxGeometry x="-15" width="120" height="30" as="geometry"/>
                </mxCell>
                <mxCell id="73" value="pull &amp;amp; run" style="text;html=1;align=center;verticalAlign=middle;resizable=0;points=[];autosize=1;strokeColor=none;fillColor=none;" parent="33" vertex="1">
                    <mxGeometry x="190" y="290" width="70" height="30" as="geometry"/>
                </mxCell>
                <mxCell id="46" value="deploy apps" style="text;html=1;align=center;verticalAlign=middle;resizable=0;points=[];autosize=1;strokeColor=none;fillColor=none;" parent="33" vertex="1">
                    <mxGeometry x="391" y="168" width="90" height="30" as="geometry"/>
                </mxCell>
                <mxCell id="91" value="" style="edgeStyle=elbowEdgeStyle;elbow=horizontal;endArrow=classic;html=1;curved=0;rounded=0;endSize=8;startSize=8;exitX=0;exitY=0.5;exitDx=0;exitDy=0;exitPerimeter=0;entryX=1;entryY=0.75;entryDx=0;entryDy=0;" edge="1" parent="33" source="31" target="3">
                    <mxGeometry width="50" height="50" relative="1" as="geometry">
                        <mxPoint x="250" y="490" as="sourcePoint"/>
                        <mxPoint x="300" y="440" as="targetPoint"/>
                    </mxGeometry>
                </mxCell>
                <mxCell id="7" value="Your PipeCD &lt;br&gt;Control Plane" style="text;html=1;align=center;verticalAlign=middle;resizable=0;points=[];autosize=1;strokeColor=#23445d;fillColor=#bac8d3;" parent="1" vertex="1">
                    <mxGeometry x="90" y="380" width="100" height="40" as="geometry"/>
                </mxCell>
                <mxCell id="54" value="" style="group;rotation=90;" parent="1" vertex="1" connectable="0">
                    <mxGeometry x="-80" y="480" width="465" height="450" as="geometry"/>
                </mxCell>
                <mxCell id="55" value="" style="group" parent="54" vertex="1" connectable="0">
                    <mxGeometry x="10" y="250" width="359" height="200" as="geometry"/>
                </mxCell>
                <mxCell id="80" value="" style="group;fillColor=#bac8d3;strokeColor=#23445d;" parent="55" vertex="1" connectable="0">
                    <mxGeometry x="70" y="-10" width="280" height="200" as="geometry"/>
                </mxCell>
                <mxCell id="56" value="" style="rounded=0;whiteSpace=wrap;html=1;fillColor=none;" parent="80" vertex="1">
                    <mxGeometry width="280" height="200" as="geometry"/>
                </mxCell>
                <mxCell id="57" value="ghcr.io" style="text;html=1;strokeColor=none;fillColor=none;align=left;verticalAlign=middle;whiteSpace=wrap;rounded=0;" parent="80" vertex="1">
                    <mxGeometry x="80" y="10" width="110" height="30" as="geometry"/>
                </mxCell>
                <mxCell id="58" value="" style="dashed=0;outlineConnect=0;html=1;align=center;labelPosition=center;verticalLabelPosition=bottom;verticalAlign=top;shape=mxgraph.weblogos.github;strokeColor=default;fillColor=none;" parent="80" vertex="1">
                    <mxGeometry width="75" height="75" as="geometry"/>
                </mxCell>
                <mxCell id="64" value="official image of&lt;br style=&quot;border-color: var(--border-color);&quot;&gt;piped" style="rounded=0;whiteSpace=wrap;html=1;fillColor=#bac8d3;strokeColor=#23445d;" parent="80" vertex="1">
                    <mxGeometry x="110" y="80" width="120" height="60" as="geometry"/>
                </mxCell>
                <mxCell id="83" value="" style="group;fillColor=none;" parent="54" vertex="1" connectable="0">
                    <mxGeometry x="80" width="359" height="200" as="geometry"/>
                </mxCell>
                <mxCell id="53" value="" style="group" parent="83" vertex="1" connectable="0">
                    <mxGeometry width="359" height="200" as="geometry"/>
                </mxCell>
                <mxCell id="82" value="" style="group;" parent="53" vertex="1" connectable="0">
                    <mxGeometry width="280" height="200" as="geometry"/>
                </mxCell>
                <mxCell id="39" value="" style="rounded=0;whiteSpace=wrap;html=1;fillColor=#bac8d3;strokeColor=#23445d;" parent="82" vertex="1">
                    <mxGeometry width="280" height="200" as="geometry"/>
                </mxCell>
                <mxCell id="40" value="Your Git Repository" style="text;html=1;strokeColor=none;fillColor=none;align=left;verticalAlign=middle;whiteSpace=wrap;rounded=0;" parent="82" vertex="1">
                    <mxGeometry width="110" height="30" as="geometry"/>
                </mxCell>
                <mxCell id="75" value="monitor" style="text;html=1;align=center;verticalAlign=middle;resizable=0;points=[];autosize=1;strokeColor=none;fillColor=none;" parent="53" vertex="1">
                    <mxGeometry x="290" y="68" width="60" height="30" as="geometry"/>
                </mxCell>
                <mxCell id="28" value="app.pipecd.yaml" style="whiteSpace=wrap;html=1;shape=mxgraph.basic.document;fillColor=#bac8d3;strokeColor=#23445d;" parent="83" vertex="1">
                    <mxGeometry x="40" y="60" width="100" height="100" as="geometry"/>
                </mxCell>
                <mxCell id="29" value="function.yaml&lt;br&gt;(for Lambda)" style="whiteSpace=wrap;html=1;shape=mxgraph.basic.document;fillColor=#bac8d3;strokeColor=#23445d;" parent="83" vertex="1">
                    <mxGeometry x="150" y="60" width="100" height="100" as="geometry"/>
                </mxCell>
                <mxCell id="69" value="" style="group" parent="54" vertex="1" connectable="0">
                    <mxGeometry x="360" y="325" width="105" height="30" as="geometry"/>
                </mxCell>
                <mxCell id="70" value="copy image" style="text;html=1;align=center;verticalAlign=middle;resizable=0;points=[];autosize=1;strokeColor=none;fillColor=none;" parent="69" vertex="1">
                    <mxGeometry x="5" width="80" height="30" as="geometry"/>
                </mxCell>
                <mxCell id="65" style="edgeStyle=none;html=1;exitX=1;exitY=0.5;exitDx=0;exitDy=0;entryX=0;entryY=0.5;entryDx=0;entryDy=0;" parent="1" source="64" target="23" edge="1">
                    <mxGeometry relative="1" as="geometry"/>
                </mxCell>
                <mxCell id="11" value="" style="endArrow=classic;html=1;exitX=0;exitY=0.5;exitDx=0;exitDy=0;entryX=1;entryY=0.5;entryDx=0;entryDy=0;" parent="1" source="3" target="39" edge="1">
                    <mxGeometry width="50" height="50" relative="1" as="geometry">
                        <mxPoint x="585" y="221" as="sourcePoint"/>
                        <mxPoint x="500" y="130" as="targetPoint"/>
                    </mxGeometry>
                </mxCell>
                <mxCell id="86" value="out of the scope" style="rounded=0;whiteSpace=wrap;html=1;fillColor=#bac8d3;strokeColor=#23445d;" vertex="1" parent="1">
                    <mxGeometry x="80" y="260" width="120" height="60" as="geometry"/>
                </mxCell>
            </root>
        </mxGraphModel>
    </diagram>
</mxfile>